<svg width="69" height="50" viewBox="0 0 69 50" fill="none" xmlns="http://www.w3.org/2000/svg">
<path d="M17.1855 27.2734C17.1856 34.8048 23.2908 40.9098 30.8223 40.9102C38.3535 40.91 44.4588 34.8049 44.459 27.2734H53.5508C53.5509 39.8259 43.3746 50.0009 30.8223 50.001C18.2701 50.001 8.09478 39.8258 8.09473 27.2734H17.1855ZM45.4561 0C45.4561 3.76574 48.5088 6.81836 52.2744 6.81836C56.0399 6.8182 59.0928 3.76564 59.0928 0H68.1836C68.1836 8.78661 61.0609 15.91 52.2744 15.9102C43.4878 15.9102 36.3643 8.78671 36.3643 0H45.4561ZM22.7275 9.0918H0V0H22.7275V9.0918Z" fill="black"/>
</svg>
